<?xml version="1.0" encoding="iso-8859-1"?>
<!-- Generator: Adobe Illustrator 19.0.0, SVG Export Plug-In . SVG Version: 6.00 Build 0)  -->
<svg xmlns="http://www.w3.org/2000/svg" xmlns:xlink="http://www.w3.org/1999/xlink" version="1.1" id="Layer_1" x="0px" y="0px" viewBox="0 0 512 512" style="enable-background:new 0 0 512 512;" xml:space="preserve">
<polyline style="fill:#FEC95B;" points="285.337,42.181 285.337,0 226.663,0 226.663,42.181 226.663,267.745 226.663,512   285.337,512 285.337,267.745 "/>
<g>
	<polyline style="fill:#E2AD50;" points="245.408,42.181 245.408,0 226.663,0 226.663,42.181 226.663,267.745 226.663,512    245.408,512 245.408,267.745  "/>
	<polyline style="fill:#E2AD50;" points="285.337,206.977 285.337,198.062 226.663,198.062 226.663,206.977 226.663,254.643    226.663,306.261 285.337,306.261 285.337,254.643  "/>
</g>
<path style="fill:#FC8A5E;" d="M475.749,42.182H36.251c-15.366,0-27.822,12.456-27.822,27.822v169.921  c0,15.366,12.456,27.822,27.822,27.822h439.499c15.366,0,27.822-12.456,27.822-27.822V70.005  C503.572,54.638,491.116,42.182,475.749,42.182z"/>
<path style="fill:#EA7653;" d="M475.749,256.133H36.252c-8.937,0-16.207-7.271-16.207-16.207V70.005  c0-8.937,7.271-16.207,16.207-16.207h439.498c8.937,0,16.207,7.27,16.207,16.207v169.921  C491.957,248.862,484.686,256.133,475.749,256.133z M36.252,67.246c-1.521,0-2.758,1.237-2.758,2.758v169.921  c0,1.521,1.237,2.758,2.758,2.758h439.498c1.521,0,2.758-1.237,2.758-2.758V70.005c0-1.521-1.237-2.758-2.758-2.758H36.252z"/>
<g>
	<path style="fill:#415E72;" d="M136.799,95.363c-5.064,0-9.17,4.106-9.17,9.17v40.752H86.368v-40.752c0-5.064-4.106-9.17-9.17-9.17   s-9.17,4.106-9.17,9.17v100.863c0,5.064,4.106,9.17,9.17,9.17s9.17-4.106,9.17-9.17v-41.771h41.262v41.771   c0,5.064,4.106,9.17,9.17,9.17c5.064,0,9.17-4.106,9.17-9.17V104.533C145.969,99.469,141.863,95.363,136.799,95.363z"/>
	<path style="fill:#415E72;" d="M350.841,95.508c-4.378-0.784-8.676,1.677-10.216,5.838l-28.789,77.666l-28.788-77.666   c-1.543-4.163-5.842-6.623-10.216-5.839c-4.37,0.784-7.551,4.586-7.551,9.026v100.863c0,5.064,4.104,9.17,9.17,9.17   c5.065,0,9.17-4.106,9.17-9.17v-49.741l19.618,52.927c1.333,3.596,4.763,5.984,8.598,5.984c3.834,0,7.265-2.387,8.598-5.982   l19.62-52.929v49.742c0,5.064,4.104,9.17,9.17,9.17c5.065,0,9.17-4.106,9.17-9.17V104.533   C358.392,100.094,355.211,96.291,350.841,95.508z"/>
	<path style="fill:#415E72;" d="M204.872,95.363c-21.488,0-38.97,17.481-38.97,38.97v41.263c0,21.488,17.481,38.97,38.97,38.97   s38.97-17.481,38.97-38.97v-41.263C243.842,112.846,226.36,95.363,204.872,95.363z M225.503,175.595   c0,11.375-9.255,20.631-20.631,20.631s-20.631-9.254-20.631-20.631v-41.263c0-11.375,9.254-20.631,20.631-20.631   s20.631,9.254,20.631,20.631V175.595z"/>
	<path style="fill:#415E72;" d="M434.803,196.226h-35.916v-32.602h23.69c5.065,0,9.17-4.106,9.17-9.17s-4.104-9.17-9.17-9.17h-23.69   v-31.582h35.916c5.065,0,9.17-4.106,9.17-9.17c0-5.064-4.104-9.17-9.17-9.17h-45.086c-5.065,0-9.17,4.106-9.17,9.17v100.863   c0,5.064,4.104,9.17,9.17,9.17h45.086c5.065,0,9.17-4.106,9.17-9.17S439.867,196.226,434.803,196.226z"/>
</g>
<g>
</g>
<g>
</g>
<g>
</g>
<g>
</g>
<g>
</g>
<g>
</g>
<g>
</g>
<g>
</g>
<g>
</g>
<g>
</g>
<g>
</g>
<g>
</g>
<g>
</g>
<g>
</g>
<g>
</g>
</svg>
