<?xml version="1.0" encoding="iso-8859-1"?>
<!-- Generator: Adobe Illustrator 19.0.0, SVG Export Plug-In . SVG Version: 6.00 Build 0)  -->
<svg xmlns="http://www.w3.org/2000/svg" xmlns:xlink="http://www.w3.org/1999/xlink" version="1.1" id="Layer_1" x="0px" y="0px" viewBox="0 0 511.999 511.999" style="enable-background:new 0 0 511.999 511.999;" xml:space="preserve">
<g>
	<g>
		<path d="M468.149,40.724h-81.91c-4.89,0-8.853,3.964-8.853,8.853s3.962,8.853,8.853,8.853h81.91    c9.929,0,18.008,8.078,18.008,18.008v164.045c0,9.929-8.078,18.008-18.008,18.008H284.356c-0.012,0-0.022-0.001-0.034-0.001    c-0.012,0-0.022,0.001-0.034,0.001H43.85c-9.93,0-18.008-8.078-18.008-18.008V76.436c0-9.929,8.078-18.008,18.008-18.008h312.882    c4.89,0,8.853-3.964,8.853-8.853s-3.962-8.853-8.853-8.853h-63.558V8.853c0-4.889-3.962-8.853-8.853-8.853h-56.645    c-4.889,0-8.853,3.964-8.853,8.853v31.871H43.85c-19.693,0-35.713,16.021-35.713,35.713v164.045    c0,19.692,16.021,35.713,35.713,35.713h231.619v168.195c0,4.889,3.962,8.853,8.853,8.853c4.89,0,8.853-3.964,8.853-8.853V276.194    h174.975c19.693,0,35.713-16.021,35.713-35.713V76.436C503.862,56.745,487.842,40.724,468.149,40.724z M236.529,17.705h38.94    v23.018h-38.94V17.705z"/>
	</g>
</g>
<g>
	<g>
		<path d="M83.381,189.444c-4.889,0-8.853,3.964-8.853,8.853v8.849c0,4.889,3.964,8.853,8.853,8.853s8.853-3.964,8.853-8.853v-8.849    C92.234,193.407,88.27,189.444,83.381,189.444z"/>
	</g>
</g>
<g>
	<g>
		<path d="M140.92,100.919c-4.889,0-8.853,3.964-8.853,8.853v39.342H92.234v-39.342c0-4.889-3.964-8.853-8.853-8.853    s-8.853,3.964-8.853,8.853v64.918c0,4.889,3.964,8.853,8.853,8.853s8.853-3.964,8.853-8.853v-7.869h39.835v40.327    c-0.001,4.887,3.962,8.85,8.852,8.85s8.853-3.964,8.853-8.853v-97.374C149.773,104.883,145.809,100.919,140.92,100.919z"/>
	</g>
</g>
<g>
	<g>
		<path d="M347.56,101.059c-4.227-0.757-8.376,1.619-9.863,5.636l-27.794,74.98l-27.793-74.98c-1.49-4.019-5.64-6.394-9.863-5.637    c-4.219,0.757-7.29,4.427-7.29,8.713v97.375c0,4.889,3.962,8.853,8.853,8.853c4.89,0,8.853-3.964,8.853-8.853v-48.02l18.94,51.096    c1.287,3.471,4.599,5.777,8.3,5.777s7.014-2.304,8.3-5.775l18.941-51.099v48.022c0,4.889,3.962,8.853,8.853,8.853    c4.89,0,8.853-3.964,8.853-8.853v-97.374C354.85,105.486,351.779,101.815,347.56,101.059z"/>
	</g>
</g>
<g>
	<g>
		<path d="M206.64,100.918c-20.745,0-37.623,16.878-37.623,37.623v39.836c0,20.745,16.877,37.623,37.623,37.623    s37.623-16.877,37.623-37.623v-39.836C244.263,117.796,227.385,100.918,206.64,100.918z M226.556,178.377    c0,10.982-8.935,19.917-19.917,19.917c-10.982,0-19.917-8.934-19.917-19.917v-39.836c0-10.982,8.934-19.917,19.917-19.917    s19.917,8.935,19.917,19.917V178.377z"/>
	</g>
</g>
<g>
	<g>
		<path d="M428.619,198.293h-34.674V166.82h22.871c4.89,0,8.853-3.964,8.853-8.853s-3.962-8.853-8.853-8.853h-22.871v-30.49h34.674    c4.89,0,8.853-3.964,8.853-8.853s-3.962-8.853-8.853-8.853h-43.527c-4.89,0-8.853,3.964-8.853,8.853v97.375    c0,4.888,3.962,8.852,8.853,8.852h43.527c4.89,0,8.853-3.964,8.853-8.853S433.509,198.293,428.619,198.293z"/>
	</g>
</g>
<g>
	<g>
		<path d="M284.321,465.044c-4.89,0-8.853,3.964-8.853,8.853v20.397h-38.94V296.848c0-4.889-3.964-8.853-8.853-8.853    s-8.853,3.964-8.853,8.853v206.298c0,4.889,3.964,8.853,8.853,8.853h56.645c4.89,0,8.853-3.964,8.853-8.853v-29.249    C293.174,469.008,289.212,465.044,284.321,465.044z"/>
	</g>
</g>
<g>
</g>
<g>
</g>
<g>
</g>
<g>
</g>
<g>
</g>
<g>
</g>
<g>
</g>
<g>
</g>
<g>
</g>
<g>
</g>
<g>
</g>
<g>
</g>
<g>
</g>
<g>
</g>
<g>
</g>
</svg>
